<mxfile host="app.diagrams.net" modified="2024-04-16T18:37:05.969Z" agent="Mozilla/5.0 (Windows NT 10.0; Win64; x64) AppleWebKit/537.36 (KHTML, like Gecko) Chrome/123.0.0.0 Safari/537.36 Edg/123.0.0.0" etag="EWUR-jKcXc-1I6VD1Gtn" version="22.1.17" type="github">
  <diagram name="Page-1" id="7eLni0uD8UYQOEIT9jtX">
    <mxGraphModel dx="956" dy="569" grid="0" gridSize="10" guides="1" tooltips="1" connect="1" arrows="1" fold="1" page="1" pageScale="1" pageWidth="850" pageHeight="1100" background="none" math="0" shadow="0">
      <root>
        <mxCell id="0" />
        <mxCell id="1" parent="0" />
        <mxCell id="J8Xy7qdb29YpZ6ALsLSM-4" value="Admin" style="shape=umlActor;verticalLabelPosition=bottom;verticalAlign=top;html=1;outlineConnect=0;" vertex="1" parent="1">
          <mxGeometry x="366" y="80" width="30" height="60" as="geometry" />
        </mxCell>
        <mxCell id="J8Xy7qdb29YpZ6ALsLSM-5" value="Manage Book Inventories" style="ellipse;whiteSpace=wrap;html=1;fillColor=none;" vertex="1" parent="1">
          <mxGeometry x="50" y="211" width="120" height="80" as="geometry" />
        </mxCell>
        <mxCell id="J8Xy7qdb29YpZ6ALsLSM-6" value="Manage Users" style="ellipse;whiteSpace=wrap;html=1;fillColor=none;" vertex="1" parent="1">
          <mxGeometry x="240" y="215" width="120" height="80" as="geometry" />
        </mxCell>
        <mxCell id="J8Xy7qdb29YpZ6ALsLSM-7" value="Manage Sales" style="ellipse;whiteSpace=wrap;html=1;fillColor=none;" vertex="1" parent="1">
          <mxGeometry x="461" y="213" width="120" height="80" as="geometry" />
        </mxCell>
        <mxCell id="J8Xy7qdb29YpZ6ALsLSM-8" value="Manage Shipping Information" style="ellipse;whiteSpace=wrap;html=1;fillColor=none;" vertex="1" parent="1">
          <mxGeometry x="660" y="210" width="120" height="80" as="geometry" />
        </mxCell>
        <mxCell id="J8Xy7qdb29YpZ6ALsLSM-9" value="Add, Update, Delete Books" style="ellipse;whiteSpace=wrap;html=1;fillColor=none;" vertex="1" parent="1">
          <mxGeometry x="43" y="349" width="120" height="80" as="geometry" />
        </mxCell>
        <mxCell id="J8Xy7qdb29YpZ6ALsLSM-10" value="Add, Update, Delete User" style="ellipse;whiteSpace=wrap;html=1;fillColor=none;" vertex="1" parent="1">
          <mxGeometry x="240" y="360" width="120" height="80" as="geometry" />
        </mxCell>
        <mxCell id="J8Xy7qdb29YpZ6ALsLSM-11" value="Add, Update, Delete Sales" style="ellipse;whiteSpace=wrap;html=1;fillColor=none;" vertex="1" parent="1">
          <mxGeometry x="467" y="362" width="120" height="80" as="geometry" />
        </mxCell>
        <mxCell id="J8Xy7qdb29YpZ6ALsLSM-12" value="Add, Update, Delete Shipping Info" style="ellipse;whiteSpace=wrap;html=1;fillColor=none;" vertex="1" parent="1">
          <mxGeometry x="662" y="339" width="120" height="80" as="geometry" />
        </mxCell>
        <mxCell id="J8Xy7qdb29YpZ6ALsLSM-13" value="" style="endArrow=classic;startArrow=classic;html=1;rounded=0;exitX=0.5;exitY=0;exitDx=0;exitDy=0;entryX=0.5;entryY=1;entryDx=0;entryDy=0;" edge="1" parent="1" source="J8Xy7qdb29YpZ6ALsLSM-9">
          <mxGeometry width="50" height="50" relative="1" as="geometry">
            <mxPoint x="102.5" y="340.5" as="sourcePoint" />
            <mxPoint x="103.5" y="291.5" as="targetPoint" />
          </mxGeometry>
        </mxCell>
        <mxCell id="J8Xy7qdb29YpZ6ALsLSM-14" value="" style="endArrow=classic;startArrow=classic;html=1;rounded=0;exitX=0.5;exitY=0;exitDx=0;exitDy=0;entryX=0.5;entryY=1;entryDx=0;entryDy=0;" edge="1" parent="1" source="J8Xy7qdb29YpZ6ALsLSM-10">
          <mxGeometry width="50" height="50" relative="1" as="geometry">
            <mxPoint x="302" y="329" as="sourcePoint" />
            <mxPoint x="303" y="280" as="targetPoint" />
          </mxGeometry>
        </mxCell>
        <mxCell id="J8Xy7qdb29YpZ6ALsLSM-15" value="" style="endArrow=classic;startArrow=classic;html=1;rounded=0;exitX=0.5;exitY=0;exitDx=0;exitDy=0;entryX=0.5;entryY=1;entryDx=0;entryDy=0;" edge="1" parent="1" source="J8Xy7qdb29YpZ6ALsLSM-11">
          <mxGeometry width="50" height="50" relative="1" as="geometry">
            <mxPoint x="526.5" y="342" as="sourcePoint" />
            <mxPoint x="527.5" y="293" as="targetPoint" />
          </mxGeometry>
        </mxCell>
        <mxCell id="J8Xy7qdb29YpZ6ALsLSM-16" value="" style="endArrow=classic;startArrow=classic;html=1;rounded=0;exitX=0.5;exitY=0;exitDx=0;exitDy=0;entryX=0.5;entryY=1;entryDx=0;entryDy=0;" edge="1" parent="1">
          <mxGeometry width="50" height="50" relative="1" as="geometry">
            <mxPoint x="721" y="337" as="sourcePoint" />
            <mxPoint x="722" y="288" as="targetPoint" />
          </mxGeometry>
        </mxCell>
        <mxCell id="J8Xy7qdb29YpZ6ALsLSM-17" value="Include" style="text;html=1;align=center;verticalAlign=middle;resizable=0;points=[];autosize=1;strokeColor=none;fillColor=none;" vertex="1" parent="1">
          <mxGeometry x="116.5" y="313" width="57" height="26" as="geometry" />
        </mxCell>
        <mxCell id="J8Xy7qdb29YpZ6ALsLSM-18" value="Include" style="text;html=1;align=center;verticalAlign=middle;resizable=0;points=[];autosize=1;strokeColor=none;fillColor=none;" vertex="1" parent="1">
          <mxGeometry x="299" y="291" width="57" height="26" as="geometry" />
        </mxCell>
        <mxCell id="J8Xy7qdb29YpZ6ALsLSM-19" value="Include" style="text;html=1;align=center;verticalAlign=middle;resizable=0;points=[];autosize=1;strokeColor=none;fillColor=none;" vertex="1" parent="1">
          <mxGeometry x="556" y="303" width="57" height="26" as="geometry" />
        </mxCell>
        <mxCell id="J8Xy7qdb29YpZ6ALsLSM-20" value="Include" style="text;html=1;align=center;verticalAlign=middle;resizable=0;points=[];autosize=1;strokeColor=none;fillColor=none;" vertex="1" parent="1">
          <mxGeometry x="722" y="299" width="57" height="26" as="geometry" />
        </mxCell>
        <mxCell id="J8Xy7qdb29YpZ6ALsLSM-21" value="" style="endArrow=classic;html=1;rounded=0;entryX=0.5;entryY=0;entryDx=0;entryDy=0;exitX=0;exitY=0.3333333333333333;exitDx=0;exitDy=0;exitPerimeter=0;" edge="1" parent="1" source="J8Xy7qdb29YpZ6ALsLSM-4" target="J8Xy7qdb29YpZ6ALsLSM-5">
          <mxGeometry width="50" height="50" relative="1" as="geometry">
            <mxPoint x="391" y="116" as="sourcePoint" />
            <mxPoint x="447" y="329" as="targetPoint" />
          </mxGeometry>
        </mxCell>
        <mxCell id="J8Xy7qdb29YpZ6ALsLSM-22" value="" style="endArrow=classic;html=1;rounded=0;entryX=0.5;entryY=0;entryDx=0;entryDy=0;exitX=0;exitY=1;exitDx=0;exitDy=0;exitPerimeter=0;" edge="1" parent="1" source="J8Xy7qdb29YpZ6ALsLSM-4" target="J8Xy7qdb29YpZ6ALsLSM-6">
          <mxGeometry width="50" height="50" relative="1" as="geometry">
            <mxPoint x="362" y="135" as="sourcePoint" />
            <mxPoint x="139" y="208" as="targetPoint" />
          </mxGeometry>
        </mxCell>
        <mxCell id="J8Xy7qdb29YpZ6ALsLSM-23" value="" style="endArrow=classic;html=1;rounded=0;entryX=0.567;entryY=0.035;entryDx=0;entryDy=0;entryPerimeter=0;exitX=1;exitY=0.3333333333333333;exitDx=0;exitDy=0;exitPerimeter=0;" edge="1" parent="1" source="J8Xy7qdb29YpZ6ALsLSM-4" target="J8Xy7qdb29YpZ6ALsLSM-8">
          <mxGeometry width="50" height="50" relative="1" as="geometry">
            <mxPoint x="417" y="103" as="sourcePoint" />
            <mxPoint x="238" y="218" as="targetPoint" />
          </mxGeometry>
        </mxCell>
        <mxCell id="J8Xy7qdb29YpZ6ALsLSM-24" value="" style="endArrow=classic;html=1;rounded=0;entryX=0.5;entryY=0;entryDx=0;entryDy=0;exitX=1;exitY=1;exitDx=0;exitDy=0;exitPerimeter=0;" edge="1" parent="1">
          <mxGeometry width="50" height="50" relative="1" as="geometry">
            <mxPoint x="397" y="140" as="sourcePoint" />
            <mxPoint x="526" y="213" as="targetPoint" />
          </mxGeometry>
        </mxCell>
        <mxCell id="J8Xy7qdb29YpZ6ALsLSM-25" value="Customer" style="shape=umlActor;verticalLabelPosition=bottom;verticalAlign=top;html=1;outlineConnect=0;" vertex="1" parent="1">
          <mxGeometry x="383" y="929" width="30" height="60" as="geometry" />
        </mxCell>
        <mxCell id="J8Xy7qdb29YpZ6ALsLSM-26" value="Display Hint If Username/Email Is Used" style="ellipse;whiteSpace=wrap;html=1;fillColor=none;" vertex="1" parent="1">
          <mxGeometry x="25" y="524" width="120" height="80" as="geometry" />
        </mxCell>
        <mxCell id="J8Xy7qdb29YpZ6ALsLSM-27" value="Credentials Verification" style="ellipse;whiteSpace=wrap;html=1;fillColor=none;" vertex="1" parent="1">
          <mxGeometry x="202" y="482" width="120" height="80" as="geometry" />
        </mxCell>
        <mxCell id="J8Xy7qdb29YpZ6ALsLSM-28" value="Log Out" style="ellipse;whiteSpace=wrap;html=1;fillColor=none;" vertex="1" parent="1">
          <mxGeometry x="341" y="637" width="120" height="80" as="geometry" />
        </mxCell>
        <mxCell id="J8Xy7qdb29YpZ6ALsLSM-29" value="Display Book Listing" style="ellipse;whiteSpace=wrap;html=1;fillColor=none;" vertex="1" parent="1">
          <mxGeometry x="691" y="632" width="120" height="80" as="geometry" />
        </mxCell>
        <mxCell id="J8Xy7qdb29YpZ6ALsLSM-30" value="Register Account" style="ellipse;whiteSpace=wrap;html=1;fillColor=none;" vertex="1" parent="1">
          <mxGeometry x="85" y="764" width="120" height="80" as="geometry" />
        </mxCell>
        <mxCell id="J8Xy7qdb29YpZ6ALsLSM-31" value="Login Account" style="ellipse;whiteSpace=wrap;html=1;fillColor=none;" vertex="1" parent="1">
          <mxGeometry x="259" y="766" width="120" height="80" as="geometry" />
        </mxCell>
        <mxCell id="J8Xy7qdb29YpZ6ALsLSM-32" value="User Profile" style="ellipse;whiteSpace=wrap;html=1;fillColor=none;" vertex="1" parent="1">
          <mxGeometry x="417" y="764" width="120" height="80" as="geometry" />
        </mxCell>
        <mxCell id="J8Xy7qdb29YpZ6ALsLSM-33" value="Search Books" style="ellipse;whiteSpace=wrap;html=1;fillColor=none;" vertex="1" parent="1">
          <mxGeometry x="580" y="766" width="120" height="80" as="geometry" />
        </mxCell>
        <mxCell id="J8Xy7qdb29YpZ6ALsLSM-34" value="" style="endArrow=classic;startArrow=classic;html=1;rounded=0;exitX=0.5;exitY=0;exitDx=0;exitDy=0;entryX=0.5;entryY=1;entryDx=0;entryDy=0;" edge="1" parent="1" source="J8Xy7qdb29YpZ6ALsLSM-30" target="J8Xy7qdb29YpZ6ALsLSM-26">
          <mxGeometry width="50" height="50" relative="1" as="geometry">
            <mxPoint x="101" y="746" as="sourcePoint" />
            <mxPoint x="102" y="697" as="targetPoint" />
          </mxGeometry>
        </mxCell>
        <mxCell id="J8Xy7qdb29YpZ6ALsLSM-35" value="" style="endArrow=classic;startArrow=classic;html=1;rounded=0;exitX=0.5;exitY=0;exitDx=0;exitDy=0;entryX=0.558;entryY=1.06;entryDx=0;entryDy=0;entryPerimeter=0;" edge="1" parent="1" target="J8Xy7qdb29YpZ6ALsLSM-27">
          <mxGeometry width="50" height="50" relative="1" as="geometry">
            <mxPoint x="319" y="766" as="sourcePoint" />
            <mxPoint x="320" y="717" as="targetPoint" />
          </mxGeometry>
        </mxCell>
        <mxCell id="J8Xy7qdb29YpZ6ALsLSM-36" value="" style="endArrow=classic;startArrow=classic;html=1;rounded=0;exitX=0.5;exitY=0;exitDx=0;exitDy=0;entryX=0.5;entryY=1;entryDx=0;entryDy=0;" edge="1" parent="1" target="J8Xy7qdb29YpZ6ALsLSM-28">
          <mxGeometry width="50" height="50" relative="1" as="geometry">
            <mxPoint x="475" y="762" as="sourcePoint" />
            <mxPoint x="476" y="713" as="targetPoint" />
          </mxGeometry>
        </mxCell>
        <mxCell id="J8Xy7qdb29YpZ6ALsLSM-37" value="" style="endArrow=classic;startArrow=classic;html=1;rounded=0;exitX=1;exitY=0.5;exitDx=0;exitDy=0;entryX=0.5;entryY=1;entryDx=0;entryDy=0;" edge="1" parent="1" source="J8Xy7qdb29YpZ6ALsLSM-33" target="J8Xy7qdb29YpZ6ALsLSM-29">
          <mxGeometry width="50" height="50" relative="1" as="geometry">
            <mxPoint x="704" y="809" as="sourcePoint" />
            <mxPoint x="705" y="760" as="targetPoint" />
          </mxGeometry>
        </mxCell>
        <mxCell id="J8Xy7qdb29YpZ6ALsLSM-38" value="Extend" style="text;html=1;align=center;verticalAlign=middle;resizable=0;points=[];autosize=1;strokeColor=none;fillColor=none;" vertex="1" parent="1">
          <mxGeometry x="47" y="664" width="55" height="26" as="geometry" />
        </mxCell>
        <mxCell id="J8Xy7qdb29YpZ6ALsLSM-39" value="Include" style="text;html=1;align=center;verticalAlign=middle;resizable=0;points=[];autosize=1;strokeColor=none;fillColor=none;" vertex="1" parent="1">
          <mxGeometry x="284" y="627" width="57" height="26" as="geometry" />
        </mxCell>
        <mxCell id="J8Xy7qdb29YpZ6ALsLSM-40" value="Include" style="text;html=1;align=center;verticalAlign=middle;resizable=0;points=[];autosize=1;strokeColor=none;fillColor=none;" vertex="1" parent="1">
          <mxGeometry x="454" y="611" width="57" height="26" as="geometry" />
        </mxCell>
        <mxCell id="J8Xy7qdb29YpZ6ALsLSM-41" value="Include" style="text;html=1;align=center;verticalAlign=middle;resizable=0;points=[];autosize=1;strokeColor=none;fillColor=none;" vertex="1" parent="1">
          <mxGeometry x="725" y="757" width="57" height="26" as="geometry" />
        </mxCell>
        <mxCell id="J8Xy7qdb29YpZ6ALsLSM-42" value="" style="endArrow=classic;html=1;rounded=0;entryX=0.5;entryY=1;entryDx=0;entryDy=0;exitX=0;exitY=0.3333333333333333;exitDx=0;exitDy=0;exitPerimeter=0;" edge="1" parent="1" target="J8Xy7qdb29YpZ6ALsLSM-31">
          <mxGeometry width="50" height="50" relative="1" as="geometry">
            <mxPoint x="383" y="946" as="sourcePoint" />
            <mxPoint x="464" y="766" as="targetPoint" />
          </mxGeometry>
        </mxCell>
        <mxCell id="J8Xy7qdb29YpZ6ALsLSM-43" value="" style="endArrow=classic;html=1;rounded=0;exitX=0;exitY=1;exitDx=0;exitDy=0;exitPerimeter=0;entryX=0.5;entryY=1;entryDx=0;entryDy=0;" edge="1" parent="1" target="J8Xy7qdb29YpZ6ALsLSM-30">
          <mxGeometry width="50" height="50" relative="1" as="geometry">
            <mxPoint x="383" y="986" as="sourcePoint" />
            <mxPoint x="155" y="878" as="targetPoint" />
          </mxGeometry>
        </mxCell>
        <mxCell id="J8Xy7qdb29YpZ6ALsLSM-44" value="" style="endArrow=classic;html=1;rounded=0;exitX=1;exitY=0.3333333333333333;exitDx=0;exitDy=0;exitPerimeter=0;entryX=0.5;entryY=1;entryDx=0;entryDy=0;" edge="1" parent="1" target="J8Xy7qdb29YpZ6ALsLSM-32">
          <mxGeometry width="50" height="50" relative="1" as="geometry">
            <mxPoint x="413" y="946" as="sourcePoint" />
            <mxPoint x="554" y="858" as="targetPoint" />
          </mxGeometry>
        </mxCell>
        <mxCell id="J8Xy7qdb29YpZ6ALsLSM-45" value="" style="endArrow=classic;html=1;rounded=0;entryX=0.5;entryY=1;entryDx=0;entryDy=0;exitX=1;exitY=1;exitDx=0;exitDy=0;exitPerimeter=0;" edge="1" parent="1" target="J8Xy7qdb29YpZ6ALsLSM-33">
          <mxGeometry width="50" height="50" relative="1" as="geometry">
            <mxPoint x="413" y="986" as="sourcePoint" />
            <mxPoint x="327" y="647" as="targetPoint" />
          </mxGeometry>
        </mxCell>
        <mxCell id="J8Xy7qdb29YpZ6ALsLSM-50" value="Display Login Error, Else Display Home Page" style="ellipse;whiteSpace=wrap;html=1;fillColor=none;" vertex="1" parent="1">
          <mxGeometry x="148" y="615" width="120" height="80" as="geometry" />
        </mxCell>
        <mxCell id="J8Xy7qdb29YpZ6ALsLSM-51" value="" style="endArrow=classic;startArrow=classic;html=1;rounded=0;exitX=0.5;exitY=0;exitDx=0;exitDy=0;entryX=0.5;entryY=1;entryDx=0;entryDy=0;" edge="1" parent="1" target="J8Xy7qdb29YpZ6ALsLSM-50">
          <mxGeometry width="50" height="50" relative="1" as="geometry">
            <mxPoint x="275" y="780" as="sourcePoint" />
            <mxPoint x="205" y="640" as="targetPoint" />
          </mxGeometry>
        </mxCell>
        <mxCell id="J8Xy7qdb29YpZ6ALsLSM-52" value="Extend" style="text;html=1;align=center;verticalAlign=middle;resizable=0;points=[];autosize=1;strokeColor=none;fillColor=none;" vertex="1" parent="1">
          <mxGeometry x="195" y="734" width="55" height="26" as="geometry" />
        </mxCell>
        <mxCell id="J8Xy7qdb29YpZ6ALsLSM-54" value="User Details" style="ellipse;whiteSpace=wrap;html=1;fillColor=none;" vertex="1" parent="1">
          <mxGeometry x="445" y="487" width="120" height="80" as="geometry" />
        </mxCell>
        <mxCell id="J8Xy7qdb29YpZ6ALsLSM-55" value="" style="endArrow=classic;startArrow=classic;html=1;rounded=0;entryX=0.573;entryY=1.03;entryDx=0;entryDy=0;entryPerimeter=0;exitX=1;exitY=0;exitDx=0;exitDy=0;" edge="1" parent="1" source="J8Xy7qdb29YpZ6ALsLSM-32" target="J8Xy7qdb29YpZ6ALsLSM-54">
          <mxGeometry width="50" height="50" relative="1" as="geometry">
            <mxPoint x="511" y="780.5" as="sourcePoint" />
            <mxPoint x="508" y="574" as="targetPoint" />
          </mxGeometry>
        </mxCell>
        <mxCell id="J8Xy7qdb29YpZ6ALsLSM-56" value="Book Detail" style="ellipse;whiteSpace=wrap;html=1;fillColor=none;" vertex="1" parent="1">
          <mxGeometry x="531" y="632" width="120" height="80" as="geometry" />
        </mxCell>
        <mxCell id="J8Xy7qdb29YpZ6ALsLSM-57" value="" style="endArrow=classic;startArrow=classic;html=1;rounded=0;entryX=0.5;entryY=1;entryDx=0;entryDy=0;exitX=0.5;exitY=0;exitDx=0;exitDy=0;" edge="1" parent="1" source="J8Xy7qdb29YpZ6ALsLSM-33" target="J8Xy7qdb29YpZ6ALsLSM-56">
          <mxGeometry width="50" height="50" relative="1" as="geometry">
            <mxPoint x="640" y="762" as="sourcePoint" />
            <mxPoint x="761" y="722" as="targetPoint" />
          </mxGeometry>
        </mxCell>
        <mxCell id="J8Xy7qdb29YpZ6ALsLSM-58" value="Add To Cart" style="ellipse;whiteSpace=wrap;html=1;fillColor=none;" vertex="1" parent="1">
          <mxGeometry x="636" y="501" width="120" height="80" as="geometry" />
        </mxCell>
        <mxCell id="J8Xy7qdb29YpZ6ALsLSM-59" value="" style="endArrow=classic;startArrow=classic;html=1;rounded=0;entryX=0.578;entryY=0.995;entryDx=0;entryDy=0;entryPerimeter=0;exitX=0.735;exitY=0.053;exitDx=0;exitDy=0;exitPerimeter=0;" edge="1" parent="1">
          <mxGeometry width="50" height="50" relative="1" as="geometry">
            <mxPoint x="664.2" y="770.24" as="sourcePoint" />
            <mxPoint x="683.3599999999999" y="580.5999999999999" as="targetPoint" />
          </mxGeometry>
        </mxCell>
        <mxCell id="J8Xy7qdb29YpZ6ALsLSM-60" value="Include" style="text;html=1;align=center;verticalAlign=middle;resizable=0;points=[];autosize=1;strokeColor=none;fillColor=none;" vertex="1" parent="1">
          <mxGeometry x="617" y="598" width="57" height="26" as="geometry" />
        </mxCell>
        <mxCell id="J8Xy7qdb29YpZ6ALsLSM-61" value="Include" style="text;html=1;align=center;verticalAlign=middle;resizable=0;points=[];autosize=1;strokeColor=none;fillColor=none;" vertex="1" parent="1">
          <mxGeometry x="565" y="734" width="57" height="26" as="geometry" />
        </mxCell>
        <mxCell id="J8Xy7qdb29YpZ6ALsLSM-62" value="Include" style="text;html=1;align=center;verticalAlign=middle;resizable=0;points=[];autosize=1;strokeColor=none;fillColor=none;" vertex="1" parent="1">
          <mxGeometry x="374" y="738" width="57" height="26" as="geometry" />
        </mxCell>
        <mxCell id="J8Xy7qdb29YpZ6ALsLSM-63" value="Shopping Cart" style="ellipse;whiteSpace=wrap;html=1;fillColor=none;" vertex="1" parent="1">
          <mxGeometry x="520" y="978" width="120" height="80" as="geometry" />
        </mxCell>
        <mxCell id="J8Xy7qdb29YpZ6ALsLSM-64" value="" style="endArrow=classic;html=1;rounded=0;entryX=0;entryY=0.5;entryDx=0;entryDy=0;" edge="1" parent="1" target="J8Xy7qdb29YpZ6ALsLSM-63">
          <mxGeometry width="50" height="50" relative="1" as="geometry">
            <mxPoint x="417" y="988" as="sourcePoint" />
            <mxPoint x="487" y="854" as="targetPoint" />
          </mxGeometry>
        </mxCell>
        <mxCell id="J8Xy7qdb29YpZ6ALsLSM-65" value="Add, Reduce Book Amount or Remove Book" style="ellipse;whiteSpace=wrap;html=1;fillColor=none;" vertex="1" parent="1">
          <mxGeometry x="683" y="859" width="120" height="80" as="geometry" />
        </mxCell>
        <mxCell id="J8Xy7qdb29YpZ6ALsLSM-66" value="Purchase Confirmation" style="ellipse;whiteSpace=wrap;html=1;fillColor=none;" vertex="1" parent="1">
          <mxGeometry x="700" y="997" width="120" height="80" as="geometry" />
        </mxCell>
        <mxCell id="J8Xy7qdb29YpZ6ALsLSM-67" value="" style="endArrow=classic;html=1;rounded=0;exitX=0.5;exitY=0;exitDx=0;exitDy=0;entryX=0;entryY=1;entryDx=0;entryDy=0;" edge="1" parent="1" source="J8Xy7qdb29YpZ6ALsLSM-63" target="J8Xy7qdb29YpZ6ALsLSM-65">
          <mxGeometry width="50" height="50" relative="1" as="geometry">
            <mxPoint x="423" y="956" as="sourcePoint" />
            <mxPoint x="487" y="854" as="targetPoint" />
          </mxGeometry>
        </mxCell>
        <mxCell id="J8Xy7qdb29YpZ6ALsLSM-68" value="" style="endArrow=classic;html=1;rounded=0;exitX=1;exitY=0.5;exitDx=0;exitDy=0;" edge="1" parent="1" source="J8Xy7qdb29YpZ6ALsLSM-63">
          <mxGeometry width="50" height="50" relative="1" as="geometry">
            <mxPoint x="607" y="983" as="sourcePoint" />
            <mxPoint x="699" y="1044" as="targetPoint" />
          </mxGeometry>
        </mxCell>
        <mxCell id="J8Xy7qdb29YpZ6ALsLSM-69" value="Payment Checkout" style="ellipse;whiteSpace=wrap;html=1;fillColor=none;" vertex="1" parent="1">
          <mxGeometry x="75" y="993" width="120" height="80" as="geometry" />
        </mxCell>
        <mxCell id="J8Xy7qdb29YpZ6ALsLSM-70" value="" style="endArrow=classic;html=1;rounded=0;entryX=1;entryY=0.5;entryDx=0;entryDy=0;exitX=0;exitY=1;exitDx=0;exitDy=0;exitPerimeter=0;" edge="1" parent="1" source="J8Xy7qdb29YpZ6ALsLSM-25" target="J8Xy7qdb29YpZ6ALsLSM-69">
          <mxGeometry width="50" height="50" relative="1" as="geometry">
            <mxPoint x="427" y="998" as="sourcePoint" />
            <mxPoint x="530" y="1028" as="targetPoint" />
          </mxGeometry>
        </mxCell>
        <mxCell id="J8Xy7qdb29YpZ6ALsLSM-71" value="Include" style="text;html=1;align=center;verticalAlign=middle;resizable=0;points=[];autosize=1;strokeColor=none;fillColor=none;" vertex="1" parent="1">
          <mxGeometry x="608" y="916" width="57" height="26" as="geometry" />
        </mxCell>
        <mxCell id="J8Xy7qdb29YpZ6ALsLSM-72" value="Include" style="text;html=1;align=center;verticalAlign=middle;resizable=0;points=[];autosize=1;strokeColor=none;fillColor=none;" vertex="1" parent="1">
          <mxGeometry x="648" y="993" width="57" height="26" as="geometry" />
        </mxCell>
      </root>
    </mxGraphModel>
  </diagram>
</mxfile>
